<svg xmlns="http://www.w3.org/2000/svg" xmlns:xlink="http://www.w3.org/1999/xlink" xmlns:lucid="lucid" width="782" height="682"><g transform="translate(-463.66666666666663 -575)" lucid:page-tab-id="1pPNxX7XUeWW"><path d="M0 500h1500v1000H0z" fill="#fff"/><path d="M464.67 582a6 6 0 0 1 6-6h768a6 6 0 0 1 6 6v668a6 6 0 0 1-6 6h-768a6 6 0 0 1-6-6z" stroke="#ff80df" stroke-width="2" fill="#fff0fb"/><use xlink:href="#a" transform="matrix(1,0,0,1,476.66666666666663,588) translate(0 21.52777777777778)"/><use xlink:href="#b" transform="matrix(1,0,0,1,476.66666666666663,588) translate(57.31336805555555 21.52777777777778)"/><path d="M604.67 730.42a6 6 0 0 1 6-6h168a6 6 0 0 1 6 6v71.16a6 6 0 0 1-6 6h-168a6 6 0 0 1-6-6z" stroke="#000" stroke-width="2" fill="#fff"/><use xlink:href="#c" transform="matrix(1,0,0,1,616.6666666666666,736.4231770833334) translate(4.3454861111111 24.72222222222222)"/><use xlink:href="#d" transform="matrix(1,0,0,1,616.6666666666666,736.4231770833334) translate(51.93229166666666 24.72222222222222)"/><use xlink:href="#e" transform="matrix(1,0,0,1,616.6666666666666,736.4231770833334) translate(68.60763888888889 50.53472222222222)"/><path d="M604.67 610.42a6 6 0 0 1 6-6h168a6 6 0 0 1 6 6v71.16a6 6 0 0 1-6 6h-168a6 6 0 0 1-6-6z" stroke="#000" stroke-width="2" fill="#fff"/><use xlink:href="#c" transform="matrix(1,0,0,1,616.6666666666666,616.4231770833334) translate(8.798611111111114 35.97222222222222)"/><use xlink:href="#f" transform="matrix(1,0,0,1,616.6666666666666,616.4231770833334) translate(56.38541666666667 35.97222222222222)"/><path d="M484.67 850.42a6 6 0 0 1 6-6h168a6 6 0 0 1 6 6v71.16a6 6 0 0 1-6 6h-168a6 6 0 0 1-6-6z" stroke="#000" stroke-width="2" fill="#fff"/><use xlink:href="#g" transform="matrix(1,0,0,1,496.66666666666663,856.4231770833333) translate(24.315104166666657 35.97222222222222)"/><use xlink:href="#h" transform="matrix(1,0,0,1,496.66666666666663,856.4231770833333) translate(81.72829861111111 35.97222222222222)"/><path d="M724.67 850.42a6 6 0 0 1 6-6h168a6 6 0 0 1 6 6v71.16a6 6 0 0 1-6 6h-168a6 6 0 0 1-6-6z" stroke="#000" stroke-width="2" fill="#fff"/><use xlink:href="#i" transform="matrix(1,0,0,1,736.6666666666666,856.4231770833333) translate(17.006076388888886 35.97222222222222)"/><use xlink:href="#h" transform="matrix(1,0,0,1,736.6666666666666,856.4231770833333) translate(89.03732638888889 35.97222222222222)"/><path d="M604.67 970.42a6 6 0 0 1 6-6h168a6 6 0 0 1 6 6v71.16a6 6 0 0 1-6 6h-168a6 6 0 0 1-6-6z" stroke="#000" stroke-width="2" fill="#fff"/><use xlink:href="#c" transform="matrix(1,0,0,1,616.6666666666666,976.4231770833333) translate(4.3454861111111 24.72222222222222)"/><use xlink:href="#d" transform="matrix(1,0,0,1,616.6666666666666,976.4231770833333) translate(51.93229166666666 24.72222222222222)"/><use xlink:href="#j" transform="matrix(1,0,0,1,616.6666666666666,976.4231770833333) translate(59.28472222222222 50.53472222222222)"/><path d="M604.67 1090.42a6 6 0 0 1 6-6h168a6 6 0 0 1 6 6v71.16a6 6 0 0 1-6 6h-168a6 6 0 0 1-6-6z" stroke="#000" stroke-width="2" fill="#fff"/><use xlink:href="#c" transform="matrix(1,0,0,1,616.6666666666666,1096.4231770833335) translate(25.07899305555555 35.97222222222222)"/><use xlink:href="#k" transform="matrix(1,0,0,1,616.6666666666666,1096.4231770833335) translate(72.66579861111111 35.97222222222222)"/><path d="M1004.67 730.42a6 6 0 0 1 6-6h168a6 6 0 0 1 6 6v71.16a6 6 0 0 1-6 6h-168a6 6 0 0 1-6-6z" stroke="#000" stroke-width="2" fill="#fff"/><use xlink:href="#l" transform="matrix(1,0,0,1,1016.6666666666666,736.4231770833334) translate(27.06684027777778 35.97222222222222)"/><use xlink:href="#m" transform="matrix(1,0,0,1,1016.6666666666666,736.4231770833334) translate(93.05642361111111 35.97222222222222)"/><path d="M1004.67 882a6 6 0 0 1 6-6h168a6 6 0 0 1 6 6v71.15a6 6 0 0 1-6 6h-168a6 6 0 0 1-6-6z" stroke="#000" stroke-width="2" fill="#fff"/><use xlink:href="#n" transform="matrix(1,0,0,1,1016.6666666666666,888) translate(11.446180555555543 35.97222222222222)"/><use xlink:href="#o" transform="matrix(1,0,0,1,1016.6666666666666,888) translate(77.70486111111111 35.97222222222222)"/><path d="M694.67 689.58v15.34" stroke="#5e5e5e" stroke-width="2" fill="none"/><path d="M695.64 689.6h-1.95v-1.02h1.94z" stroke="#5e5e5e" stroke-width=".05" fill="#5e5e5e"/><path d="M694.67 720.2l-4.64-14.28h9.27z" stroke="#5e5e5e" stroke-width="2" fill="#5e5e5e"/><path d="M694.67 809.58a4.85 4.85 0 0 1-4.85 4.84H580.67a6 6 0 0 0-6 6v4.5" stroke="#5e5e5e" stroke-width="2" fill="none"/><path d="M695.64 809.6h-1.95v-1.02h1.94z" stroke="#5e5e5e" stroke-width=".05" fill="#5e5e5e"/><path d="M574.67 840.2l-4.64-14.28h9.27z" stroke="#5e5e5e" stroke-width="2" fill="#5e5e5e"/><path d="M666.67 886h38.5" stroke="#5e5e5e" stroke-width="2" fill="none"/><path d="M666.7 886.98h-1.03V885h1.02z" stroke="#5e5e5e" stroke-width=".05" fill="#5e5e5e"/><path d="M720.43 886l-14.26 4.63v-9.26z" stroke="#5e5e5e" stroke-width="2" fill="#5e5e5e"/><path d="M814.67 929.58a4.85 4.85 0 0 1-4.85 4.84H700.67a6 6 0 0 0-6 6v4.5" stroke="#5e5e5e" stroke-width="2" fill="none"/><path d="M815.64 929.6h-1.95v-1.02h1.94z" stroke="#5e5e5e" stroke-width=".05" fill="#5e5e5e"/><path d="M694.67 960.2l-4.64-14.28h9.27z" stroke="#5e5e5e" stroke-width="2" fill="#5e5e5e"/><path d="M694.67 1049.58v15.34" stroke="#5e5e5e" stroke-width="2" fill="none"/><path d="M695.64 1049.6h-1.95v-1.02h1.94z" stroke="#5e5e5e" stroke-width=".05" fill="#5e5e5e"/><path d="M694.67 1080.2l-4.64-14.28h9.27z" stroke="#5e5e5e" stroke-width="2" fill="#5e5e5e"/><path d="M985.16 766.98H930.7l-.82.06-.76.18-.73.3-.68.42-.6.5-.52.6-.4.68-.3.73-.2.76-.06.84v348l-.08 1.05-.26 1.06-.42 1-.57.94-.7.83-.83.7-.93.6-1.02.4-1.06.26-1.05.07H786.68v-1.94h131.96l.82-.07.77-.18.73-.3.67-.42.6-.5.5-.6.42-.68.3-.73.2-.76.05-.84v-348l.07-1.05.26-1.06.42-1 .57-.94.7-.83.85-.72.93-.57 1-.42 1.08-.25 1.05-.08h54.53z" stroke="#5e5e5e" stroke-width=".05" fill="#5e5e5e"/><path d="M786.7 1126.97h-1.03v-1.94h1.02z" fill="#5e5e5e"/><path stroke="#5e5e5e" stroke-width=".05" fill="#5e5e5e"/><path d="M1000.43 766l-14.26 4.63v-9.26z" fill="#5e5e5e"/><path d="M1003.6 766l-18.4 5.98v-11.96zm-16.46 3.3l10.13-3.3-10.13-3.3z" stroke="#5e5e5e" stroke-width=".05" fill="#5e5e5e"/><path d="M1094.67 809.58v46.92" stroke="#5e5e5e" stroke-width="2" fill="none"/><path d="M1095.64 809.6h-1.95v-1.02h1.94z" stroke="#5e5e5e" stroke-width=".05" fill="#5e5e5e"/><path d="M1094.67 871.76l-4.64-14.26h9.27z" stroke="#5e5e5e" stroke-width="2" fill="#5e5e5e"/><path d="M1034.84 860.04l-1.48 1.27-2-2.3.1-.06h2.43zm-21.78-22.6h-2.92l-.04-.05 1.3-1.46zm-6.33-5.7l1.65 1.48-1.3 1.45-1.62-1.46-3-2.46 1.25-1.5zM998.6 825l1.98 1.64-1.24 1.5-1.94-1.6-2.82-2.14 1.18-1.55zm-8.23-6.24l2.16 1.63-1.18 1.55-2.12-1.6-2.8-1.95 1.13-1.6zm-8.4-5.84l2.25 1.56-1.12 1.6-2.2-1.54-2.84-1.8 1.04-1.64zm-8.62-5.47l2.32 1.47-1.04 1.65-2.3-1.45-2.9-1.68 1-1.7zm-8.88-5.13l2.43 1.4-.98 1.7-2.4-1.4-2.9-1.5.9-1.74zm-9.23-4.82l2.67 1.4-.9 1.72-2.62-1.37-2.8-1.32.84-1.76zm-9.63-4.53l3.14 1.47-.83 1.76-3.1-1.45-2.4-1.02.74-1.8zm-10.13-4.26l3.93 1.66-.76 1.8-3.9-1.64-1.7-.64.67-1.83zm-10.75-4l5.18 1.94-.68 1.82-5.14-1.9-.54-.18.6-1.86zm-4.44-1.43l-.6 1.85-5.8-1.88.6-1.86zm-9.74-3.04l-.52 1.88-5.87-1.63.52-1.88zm-9.82-2.74l-.45 1.9-5.93-1.4.44-1.9zm-13.43-3.15l3.53.83-.45 1.9-3.5-.82-2.4-.46.35-1.92zm-6.46-1.23l-.37 1.92-5.98-1.14.35-1.92zm-10.03-1.84l-.28 1.93-6.03-.88.28-1.93zm-15.32-2.26l5.28.78-.3 1.93-5.22-.78-.76-.08.2-1.93zm-4.84-.5l-.2 1.93-6.06-.63.2-1.94zM836.2 767l4.34.46-.2 1.93-4.3-.45-1.73-.1.13-1.96zm-5.83-.36l-.12 1.95-6.08-.4.12-1.94zm-10.13-.63l-.13 1.95-6.07-.38.12-1.94zm-10.2-.48l-.03 1.95-6.08-.13.04-1.95zm-10.15-.2l-.05 1.94-6.1-.12.05-1.95zm-10.16-.2l-.04 1.94-3.05-.06.04-1.96z" stroke="#5e5e5e" stroke-width=".05" fill="#5e5e5e"/><path d="M786.7 765.05l-.02 1.95-1-.02V765z" fill="#5e5e5e"/><path stroke="#5e5e5e" stroke-width=".05" fill="#5e5e5e"/><path d="M1043.76 872.5l-12.62-8.12 6.66-5.44h.64v-.1z" fill="#5e5e5e"/><path d="M1045.76 874.94l-16.27-10.47 6.76-5.53h2.18v-1.8l.3-.23zm-12.96-10.66l8.96 5.77-3.86-9.93z" stroke="#5e5e5e" stroke-width=".05" fill="#5e5e5e"/><use xlink:href="#p" transform="matrix(1,0,0,1,1007.0126484401783,837.4295421561573) translate(0.005000000000000782 17.22222222222222)"/><path d="M985.17 885.72v1.95h-1.5v-1.96zm-31.74-.28v1.95h-.65v-1.96zm-4.56-.04l-.02 1.95-5.88-.05v-1.95zm-9.8-.08l-.03 1.95-5.9-.05.03-1.96zm-9.83-.1v1.96l-5.9-.05.02-1.95zm-9.8-.08l-.03 1.96-5.87-.06v-1.95zm-9.82-.08l-.02 1.95-2.94-.02.02-1.95z" stroke="#5e5e5e" stroke-width=".05" fill="#5e5e5e"/><path d="M906.7 885.03l-.02 1.95h-1V885z" fill="#5e5e5e"/><path stroke="#5e5e5e" stroke-width=".05" fill="#5e5e5e"/><path d="M1000.43 886.83l-14.3 4.5.08-9.26z" fill="#5e5e5e"/><path d="M1003.6 886.86l-18.46 5.8.1-11.94zM987.1 890l10.18-3.2-10.1-3.38z" stroke="#5e5e5e" stroke-width=".05" fill="#5e5e5e"/><use xlink:href="#q" transform="matrix(1,0,0,1,953.4320060799369,875.7941044147241) translate(0.005000000000000782 17.22222222222222)"/><path d="M789.74 1006.93l-3.06.04-.02-1.96h3.06zm10.2-.1l-6.13.06v-1.96l6.1-.06zm10.18-.1l-6.1.06-.03-1.96 6.1-.06zm10.2-.1l-6.12.06-.02-1.96 6.12-.06zm10.2-.1l-6.13.06-.03-1.96 6.12-.06zm10.23-.23l-2.5.15-3.66.04-.03-1.96 3.6-.04 2.46-.15zm10.2-.65l-.56.06-5.58.35-.12-1.94 5.53-.33.53-.06zm10.17-1.17l-2.64.4-3.47.35-.2-1.94 3.43-.37 2.6-.38zm10.12-1.8l-1.07.24-4.97.95-.37-1.92 4.93-.94 1.03-.23zm9.9-2.68l-1.6.52-4.3 1.2-.52-1.88 4.25-1.2 1.58-.5zm9.64-3.57l-2.37 1-3.35 1.25-.68-1.83 3.32-1.24 2.33-.97zm9.3-4.37l-1.93 1-3.6 1.7-.83-1.75 3.56-1.67 1.9-1zm8.95-4.96l-5.05 2.92-.3.15-.9-1.73.26-.13 5-2.9zm8.7-5.4l-5.17 3.28-1.05-1.65 5.17-3.28zm8.47-5.72l-4.87 3.4-.18.12-1.04-1.64.15-.1 4.84-3.38zm8.35-5.85l-5 3.5-1.13-1.6 5-3.5zm8.34-5.92l-1.78 1.34-3.23 2.25-1.13-1.6 3.2-2.24 1.75-1.3zm3.25-2.43l-.5-.7h1.43zm29.22-22.2h-2.76l1.78-1.33zm8.34-5.87l-4.88 3.66-1.17-1.56 4.9-3.66zm5.73-4.27l-2.45 1.83-1.17-1.56 2.46-1.83z" stroke="#5e5e5e" stroke-width=".05" fill="#5e5e5e"/><path d="M786.7 1006.97h-1.03v-1.95h1.02z" fill="#5e5e5e"/><path stroke="#5e5e5e" stroke-width=".05" fill="#5e5e5e"/><path d="M992.42 931.77l-5.55-7.43 14.2-4.83z" fill="#5e5e5e"/><path d="M992.44 933.42l-7.15-9.57 18.3-6.23zm-3.98-8.6l3.94 5.3 6.15-8.72z" stroke="#5e5e5e" stroke-width=".05" fill="#5e5e5e"/><use xlink:href="#r" transform="matrix(1,0,0,1,934.2472918229003,939.5705385045056) translate(0.004999999999999005 17.22222222222222)"/><path d="M788.18 1143.7l-1.2 2.7-1.8-.8 1.22-2.7zm4.03-9.04l-2.4 5.42-1.8-.8 2.43-5.42zm4.34-8.85l-2.65 5.32-1.75-.87 2.64-5.3zm4.58-8.72l-2.42 4.38-.4.8-1.74-.87.42-.85 2.43-4.4zm4.88-8.55l-1.83 3.02-1.14 2.07-1.7-.95 1.15-2.1 1.86-3.06zm5.24-8.35l-1.9 2.83-1.28 2.14-1.67-1 1.3-2.18 1.9-2.86zm5.6-8.1l-2.5 3.45-.9 1.36-1.63-1.1.93-1.38 2.54-3.5zm6-7.8l-3.7 4.63-1.5-1.2 3.68-4.65zm6.4-7.45l-.64.7-3.24 3.73-1.48-1.28 3.27-3.77.68-.7zm6.88-7.06l-2.83 2.76-1.34 1.42-1.42-1.34 1.36-1.44 2.86-2.8zm7.25-6.62l-.48.4-3.94 3.52-1.3-1.45 3.96-3.56.5-.4zm7.7-6.14l-3.15 2.4-1.5 1.23-1.24-1.5 1.53-1.26 3.2-2.4zm8-5.65l-.26.17-4.57 3.17-1.1-1.6 4.6-3.2.3-.2zm8.4-5.16l-2.53 1.45-2.5 1.58-1.05-1.64 2.53-1.62 2.57-1.48zm8.65-4.74l-4.32 2.24-.9.52-.96-1.7.92-.53 4.36-2.27zm8.85-4.33l-5.16 2.4-.17.1-.9-1.73.22-.1 5.2-2.44zm9-4l-4.1 1.7-1.32.62-.82-1.77 1.34-.62 4.15-1.73zm9.14-3.8l-5.48 2.28-.75-1.8 5.5-2.27zm9.2-3.6l-5.54 2.13-.7-1.82 5.53-2.14zm9.22-3.6l-5.53 2.16-.72-1.83 5.54-2.15zm9.23-3.56l-5.54 2.14-.7-1.8 5.54-2.15zm9.23-3.58l-5.54 2.14-.7-1.82 5.53-2.15zm9.22-3.58l-5.53 2.14-.7-1.82 5.53-2.14zm9.23-3.58l-5.54 2.15-.7-1.83 5.53-2.15zm9.23-3.57l-5.54 2.14-.7-1.8 5.53-2.15zm9.23-3.58l-5.55 2.14-.7-1.82 5.53-2.15zm9.2-3.75l-2.12 1-3.4 1.3-.7-1.8 3.33-1.3 2.08-.97zm3.6-1.68l-.08-.17h.43zm40.06-21.68h-2.26l1.7-.98zm6.4-2.75l-2.56 1.48-.97-1.7 2.57-1.47z" stroke="#5e5e5e" stroke-width=".05" fill="#5e5e5e"/><path d="M786.98 1146.38l-1.3 2.94v-3.52z" fill="#5e5e5e"/><path stroke="#5e5e5e" stroke-width=".05" fill="#5e5e5e"/><path d="M1039 973.4l-4.94-7.85 14.55-3.67z" fill="#5e5e5e"/><path d="M1038.9 975.05l-6.38-10.12 18.76-4.73zm-3.3-8.88l3.5 5.57 6.84-8.18z" stroke="#5e5e5e" stroke-width=".05" fill="#5e5e5e"/><use xlink:href="#s" transform="matrix(1,0,0,1,984.1896389819882,973.591000684456) translate(0.004999999999999005 17.22222222222222)"/><path d="M1004.67 1018.85a6 6 0 0 1 6-6h168a6 6 0 0 1 6 6V1090a6 6 0 0 1-6 6h-168a6 6 0 0 1-6-6z" stroke="#000" stroke-width="2" fill="#fff"/><use xlink:href="#t" transform="matrix(1,0,0,1,1016.6666666666666,1024.8463541666665) translate(35.92968749999999 35.97222222222222)"/><use xlink:href="#u" transform="matrix(1,0,0,1,1016.6666666666666,1024.8463541666665) translate(85.13107638888889 35.97222222222222)"/><path d="M1004.67 1155.7a6 6 0 0 1 6-6h168a6 6 0 0 1 6 6v71.15a6 6 0 0 1-6 6h-168a6 6 0 0 1-6-6z" stroke="#000" stroke-width="2" fill="#fff"/><use xlink:href="#v" transform="matrix(1,0,0,1,1016.6666666666666,1161.6927083333333) translate(29.6189236111111 35.97222222222222)"/><use xlink:href="#w" transform="matrix(1,0,0,1,1016.6666666666666,1161.6927083333333) translate(84.0546875 35.97222222222222)"/><path d="M1094.67 961.15v32.2" stroke="#5e5e5e" stroke-width="2" stroke-linejoin="round" fill="none"/><path d="M1095.64 961.18h-1.95v-1.03h1.94z" stroke="#5e5e5e" stroke-width=".05" fill="#5e5e5e"/><path d="M1094.67 1008.6l-4.64-14.26h9.27z" stroke="#5e5e5e" stroke-width="2" fill="#5e5e5e"/><path d="M1094.67 1098v32.2" stroke="#5e5e5e" stroke-width="2" stroke-linejoin="round" fill="none"/><path d="M1095.64 1098.03h-1.95V1097h1.94z" stroke="#5e5e5e" stroke-width=".05" fill="#5e5e5e"/><path d="M1094.67 1145.46l-4.64-14.27h9.27z" stroke="#5e5e5e" stroke-width="2" fill="#5e5e5e"/><path d="M1220.76 645.1l1.06.26 1.02.42.93.58.83.7.7.84.58.93.42 1 .26 1.08.08 1.06v533.35l-.08 1.06-.26 1.07-.42 1-.57.94-.7.83-.83.7-.93.6-1.02.4-1.06.26-1.06.08h-33.03v-1.94h32.96l.82-.07.77-.18.73-.3.67-.42.6-.5.5-.6.42-.68.3-.73.2-.76.05-.83v-533.2l-.07-.82-.2-.75-.3-.73-.4-.67-.5-.6-.6-.5-.68-.43-.73-.3-.77-.18-.82-.06H804.17V645h415.53z" stroke="#5e5e5e" stroke-width=".05" fill="#5e5e5e"/><path d="M1186.7 1192.24h-1.03v-1.94h1.02z" fill="#5e5e5e"/><path stroke="#5e5e5e" stroke-width=".05" fill="#5e5e5e"/><path d="M803.17 650.63L788.9 646l14.27-4.63z" fill="#5e5e5e"/><path d="M804.14 651.98l-18.4-5.98 18.4-5.98zM792.06 646l10.13 3.3v-6.6z" stroke="#5e5e5e" stroke-width=".05" fill="#5e5e5e"/><defs><path d="M180 0v-1490h270l367 940c28 72 75 218 110 339 35-117 81-264 110-339l362-940h271V0h-187c2-448-5-837 7-1287-157 497-311 829-483 1287H842C666-458 514-784 354-1284c12 438 5 843 7 1284H180" id="x"/><path d="M471 26C259 26 90-98 90-318c0-256 228-303 435-329 202-27 287-16 287-108 0-139-79-219-234-219-161 0-248 86-283 164l-173-57c86-203 278-265 451-265 150 0 419 46 419 395V0H815v-152h-12C765-73 660 26 471 26zm31-159c199 0 310-134 310-271v-155c-30 35-226 55-295 64-131 17-246 59-246 186 0 116 97 176 231 176" id="y"/><path d="M158 0v-1118h180V0H158zm91-1301c-68 0-125-53-125-119s57-119 125-119c69 0 126 53 126 119s-57 119-126 119" id="z"/><path d="M338-670V0H158v-1118h173l1 207c72-158 192-221 342-221 226 0 378 139 378 422V0H872v-695c0-172-96-275-252-275-161 0-282 109-282 300" id="A"/><g id="a"><use transform="matrix(0.010850694444444444,0,0,0.010850694444444444,0,0)" xlink:href="#x"/><use transform="matrix(0.010850694444444444,0,0,0.010850694444444444,20.07378472222222,0)" xlink:href="#y"/><use transform="matrix(0.010850694444444444,0,0,0.010850694444444444,32.55208333333333,0)" xlink:href="#z"/><use transform="matrix(0.010850694444444444,0,0,0.010850694444444444,37.93402777777777,0)" xlink:href="#A"/></g><path d="M338-1490V0H158v-1490h180" id="B"/><path d="M613 24c-304 0-509-231-509-576 0-350 205-580 509-580 305 0 511 230 511 580 0 345-206 576-511 576zm0-161c226 0 329-195 329-415 0-222-103-419-329-419-223 0-326 196-326 419 0 220 103 415 326 415" id="C"/><path d="M158 418v-1536h174v179h20c37-59 106-193 324-193 279 0 474 222 474 576 0 356-194 580-473 580-213 0-288-135-325-197h-14v591H158zm492-555c209 0 317-186 317-421 0-232-105-413-317-413-206 0-314 166-314 413 0 249 111 421 314 421" id="D"/><g id="b"><use transform="matrix(0.010850694444444444,0,0,0.010850694444444444,0,0)" xlink:href="#B"/><use transform="matrix(0.010850694444444444,0,0,0.010850694444444444,5.381944444444445,0)" xlink:href="#C"/><use transform="matrix(0.010850694444444444,0,0,0.010850694444444444,18.70659722222222,0)" xlink:href="#C"/><use transform="matrix(0.010850694444444444,0,0,0.010850694444444444,32.03125,0)" xlink:href="#D"/></g><path d="M180 0v-1490h510c348 0 508 194 508 460 0 198-88 351-276 417L1256 0h-220L726-579c-117 2-238 0-356 1V0H180zm190-747h312c235 0 327-108 327-283 0-177-92-293-329-293H370v576" id="E"/><path d="M628 24c-324 0-524-230-524-574 0-343 198-582 503-582 237 0 487 146 487 559v75H286c9 234 145 362 343 362 132 0 231-58 273-172l174 48C1024-91 857 24 628 24zM287-650h624c-17-190-120-322-304-322-192 0-309 151-320 322" id="F"/><path d="M577 24c-279 0-473-224-473-580 0-354 195-576 474-576 218 0 287 134 324 193h14v-551h180V0H922v-173h-20C865-111 790 24 577 24zm27-161c203 0 314-172 314-421 0-247-108-413-314-413-212 0-317 181-317 413 0 235 108 421 317 421" id="G"/><g id="c"><use transform="matrix(0.008680555555555556,0,0,0.008680555555555556,0,0)" xlink:href="#E"/><use transform="matrix(0.008680555555555556,0,0,0.008680555555555556,11.180555555555559,0)" xlink:href="#F"/><use transform="matrix(0.008680555555555556,0,0,0.008680555555555556,21.71875,0)" xlink:href="#y"/><use transform="matrix(0.008680555555555556,0,0,0.008680555555555556,31.70138888888889,0)" xlink:href="#G"/></g><path d="M158 0v-1118h174v172h12c41-113 157-188 290-188 26 0 70 2 91 3v181c-11-2-60-10-108-10-161 0-279 109-279 260V0H158" id="H"/><path d="M613 24c-304 0-509-231-509-576 0-350 205-580 509-580 216 0 392 114 453 309l-173 49c-33-115-133-197-280-197-223 0-326 196-326 419 0 220 103 415 326 415 150 0 252-85 285-206l172 49C1010-95 832 24 613 24" id="I"/><path d="M598-1118v154H368v674c0 100 37 144 132 144 23 0 62-6 92-12L629-6c-37 13-88 20-134 20-193 0-307-107-307-290v-688H20v-154h168v-266h180v266h230" id="J"/><path d="M538 24C308 24 148-78 108-271l171-41c32 123 123 178 257 178 156 0 256-77 256-169 0-77-54-128-164-154l-186-44c-203-48-300-148-300-305 0-192 176-326 414-326 230 0 351 112 402 269l-163 42c-31-80-94-158-238-158-133 0-233 69-233 162 0 83 57 129 188 160l169 40c203 48 298 149 298 302 0 196-179 339-441 339" id="K"/><g id="d"><use transform="matrix(0.008680555555555556,0,0,0.008680555555555556,0,0)" xlink:href="#D"/><use transform="matrix(0.008680555555555556,0,0,0.008680555555555556,10.885416666666668,0)" xlink:href="#F"/><use transform="matrix(0.008680555555555556,0,0,0.008680555555555556,21.25,0)" xlink:href="#H"/><use transform="matrix(0.008680555555555556,0,0,0.008680555555555556,27.647569444444443,0)" xlink:href="#I"/><use transform="matrix(0.008680555555555556,0,0,0.008680555555555556,37.80381944444444,0)" xlink:href="#F"/><use transform="matrix(0.008680555555555556,0,0,0.008680555555555556,48.16840277777778,0)" xlink:href="#D"/><use transform="matrix(0.008680555555555556,0,0,0.008680555555555556,59.053819444444436,0)" xlink:href="#J"/><use transform="matrix(0.008680555555555556,0,0,0.008680555555555556,64.86979166666667,0)" xlink:href="#z"/><use transform="matrix(0.008680555555555556,0,0,0.008680555555555556,69.17534722222223,0)" xlink:href="#C"/><use transform="matrix(0.008680555555555556,0,0,0.008680555555555556,79.83506944444446,0)" xlink:href="#A"/><use transform="matrix(0.008680555555555556,0,0,0.008680555555555556,90.33854166666669,0)" xlink:href="#K"/></g><path d="M218-607c0-325 108-727 258-974h175c-155 315-250 682-250 974 0 265 78 531 250 886H476C306-10 218-315 218-607" id="L"/><path d="M96 279C273-86 346-350 346-607c0-292-95-659-250-974h175c150 246 258 650 258 974 0 297-91 602-258 886H96" id="M"/><g id="e"><use transform="matrix(0.008680555555555556,0,0,0.008680555555555556,0,0)" xlink:href="#L"/><use transform="matrix(0.008680555555555556,0,0,0.008680555555555556,6.484375,0)" xlink:href="#J"/><use transform="matrix(0.008680555555555556,0,0,0.008680555555555556,12.300347222222221,0)" xlink:href="#M"/></g><path d="M481 0L54-1118h197c107 314 236 620 325 951 87-331 217-637 324-951h197L670 0H481" id="N"/><g id="f"><use transform="matrix(0.008680555555555556,0,0,0.008680555555555556,0,0)" xlink:href="#y"/><use transform="matrix(0.008680555555555556,0,0,0.008680555555555556,9.98263888888889,0)" xlink:href="#I"/><use transform="matrix(0.008680555555555556,0,0,0.008680555555555556,20.13888888888889,0)" xlink:href="#J"/><use transform="matrix(0.008680555555555556,0,0,0.008680555555555556,25.95486111111111,0)" xlink:href="#z"/><use transform="matrix(0.008680555555555556,0,0,0.008680555555555556,30.260416666666664,0)" xlink:href="#N"/><use transform="matrix(0.008680555555555556,0,0,0.008680555555555556,40.16493055555555,0)" xlink:href="#y"/><use transform="matrix(0.008680555555555556,0,0,0.008680555555555556,50.14756944444445,0)" xlink:href="#J"/><use transform="matrix(0.008680555555555556,0,0,0.008680555555555556,55.963541666666664,0)" xlink:href="#z"/><use transform="matrix(0.008680555555555556,0,0,0.008680555555555556,60.26909722222222,0)" xlink:href="#C"/><use transform="matrix(0.008680555555555556,0,0,0.008680555555555556,70.92881944444444,0)" xlink:href="#A"/><use transform="matrix(0.008680555555555556,0,0,0.008680555555555556,81.43229166666667,0)" xlink:href="#K"/></g><path d="M657 26c-323 0-524-166-541-416h195c15 169 171 246 346 246 202 0 356-106 356-265 5-203-294-238-475-293-239-73-380-191-380-389 0-252 224-419 512-419 294 0 499 171 508 396H992c-17-145-151-228-328-228-193 0-321 102-321 242 0 156 175 211 284 241l149 41c160 44 422 134 422 412 0 244-197 432-541 432" id="O"/><g id="g"><use transform="matrix(0.008680555555555556,0,0,0.008680555555555556,0,0)" xlink:href="#O"/><use transform="matrix(0.008680555555555556,0,0,0.008680555555555556,11.40625,0)" xlink:href="#F"/><use transform="matrix(0.008680555555555556,0,0,0.008680555555555556,21.770833333333336,0)" xlink:href="#B"/><use transform="matrix(0.008680555555555556,0,0,0.008680555555555556,26.076388888888893,0)" xlink:href="#F"/><use transform="matrix(0.008680555555555556,0,0,0.008680555555555556,36.44097222222223,0)" xlink:href="#I"/><use transform="matrix(0.008680555555555556,0,0,0.008680555555555556,46.597222222222236,0)" xlink:href="#J"/></g><path d="M140 405l46-156c120 36 205 19 263-150l32-93L54-1118h197c107 313 237 620 324 950 87-331 219-637 326-950h196L606 167c-68 178-176 259-334 259-64 0-113-12-132-21" id="P"/><g id="h"><use transform="matrix(0.008680555555555556,0,0,0.008680555555555556,0,0)" xlink:href="#D"/><use transform="matrix(0.008680555555555556,0,0,0.008680555555555556,10.885416666666668,0)" xlink:href="#C"/><use transform="matrix(0.008680555555555556,0,0,0.008680555555555556,21.545138888888893,0)" xlink:href="#B"/><use transform="matrix(0.008680555555555556,0,0,0.008680555555555556,25.85069444444445,0)" xlink:href="#z"/><use transform="matrix(0.008680555555555556,0,0,0.008680555555555556,30.156250000000004,0)" xlink:href="#I"/><use transform="matrix(0.008680555555555556,0,0,0.008680555555555556,39.965277777777786,0)" xlink:href="#P"/></g><path d="M180 0v-1490h908v168H370v486h669v168H370v500h727V0H180" id="Q"/><path d="M65 0l393-574-370-544h210c88 136 192 297 267 435 67-142 176-302 264-435h206L661-564 1053 0H844c-94-144-206-310-287-458C484-308 366-142 273 0H65" id="R"/><path d="M537 14c-226 0-379-139-379-422v-710h180v695c0 172 97 275 253 275 160 0 281-109 281-300v-670h181V0H879v-209C806-46 684 14 537 14" id="S"/><g id="i"><use transform="matrix(0.008680555555555556,0,0,0.008680555555555556,0,0)" xlink:href="#Q"/><use transform="matrix(0.008680555555555556,0,0,0.008680555555555556,10.68576388888889,0)" xlink:href="#R"/><use transform="matrix(0.008680555555555556,0,0,0.008680555555555556,19.991319444444443,0)" xlink:href="#F"/><use transform="matrix(0.008680555555555556,0,0,0.008680555555555556,30.35590277777778,0)" xlink:href="#I"/><use transform="matrix(0.008680555555555556,0,0,0.008680555555555556,40.51215277777778,0)" xlink:href="#S"/><use transform="matrix(0.008680555555555556,0,0,0.008680555555555556,51.02430555555556,0)" xlink:href="#J"/><use transform="matrix(0.008680555555555556,0,0,0.008680555555555556,56.666666666666664,0)" xlink:href="#F"/></g><path d="M593-100v-404H195v-159h398v-403h169v403h398v159H762v404H593" id="T"/><path d="M653-1490V0H466v-1314h-10L96-1047v-204l324-239h233" id="U"/><g id="j"><use transform="matrix(0.008680555555555556,0,0,0.008680555555555556,0,0)" xlink:href="#L"/><use transform="matrix(0.008680555555555556,0,0,0.008680555555555556,6.484375,0)" xlink:href="#J"/><use transform="matrix(0.008680555555555556,0,0,0.008680555555555556,11.953125,0)" xlink:href="#T"/><use transform="matrix(0.008680555555555556,0,0,0.008680555555555556,23.71527777777778,0)" xlink:href="#U"/><use transform="matrix(0.008680555555555556,0,0,0.008680555555555556,30.946180555555557,0)" xlink:href="#M"/></g><path d="M409 0L70-1118h191c89 329 165 560 243 925 75-353 154-601 240-925h192c85 325 161 564 235 922 77-354 157-598 244-922h191L1267 0h-179c-86-307-176-590-250-913C763-588 675-308 588 0H409" id="V"/><g id="k"><use transform="matrix(0.008680555555555556,0,0,0.008680555555555556,0,0)" xlink:href="#H"/><use transform="matrix(0.008680555555555556,0,0,0.008680555555555556,6.397569444444445,0)" xlink:href="#F"/><use transform="matrix(0.008680555555555556,0,0,0.008680555555555556,16.44097222222222,0)" xlink:href="#V"/><use transform="matrix(0.008680555555555556,0,0,0.008680555555555556,30.989583333333336,0)" xlink:href="#y"/><use transform="matrix(0.008680555555555556,0,0,0.008680555555555556,40.97222222222223,0)" xlink:href="#H"/><use transform="matrix(0.008680555555555556,0,0,0.008680555555555556,47.36979166666668,0)" xlink:href="#G"/></g><path d="M763 24c-353 0-583-224-583-531v-983h190v968c0 214 149 370 393 370 243 0 391-156 391-370v-968h190v983c0 307-230 531-581 531" id="W"/><g id="l"><use transform="matrix(0.008680555555555556,0,0,0.008680555555555556,0,0)" xlink:href="#W"/><use transform="matrix(0.008680555555555556,0,0,0.008680555555555556,13.229166666666668,0)" xlink:href="#D"/><use transform="matrix(0.008680555555555556,0,0,0.008680555555555556,24.114583333333336,0)" xlink:href="#G"/><use transform="matrix(0.008680555555555556,0,0,0.008680555555555556,35,0)" xlink:href="#y"/><use transform="matrix(0.008680555555555556,0,0,0.008680555555555556,44.982638888888886,0)" xlink:href="#J"/><use transform="matrix(0.008680555555555556,0,0,0.008680555555555556,50.62499999999999,0)" xlink:href="#F"/></g><path d="M180 0v-1490h190v1322h690V0H180" id="X"/><path d="M98-1322v-168h1126v168H757V0H567v-1322H98" id="Y"/><g id="m"><use transform="matrix(0.008680555555555556,0,0,0.008680555555555556,0,0)" xlink:href="#X"/><use transform="matrix(0.008680555555555556,0,0,0.008680555555555556,8.34201388888889,0)" xlink:href="#Y"/><use transform="matrix(0.008680555555555556,0,0,0.008680555555555556,19.817708333333336,0)" xlink:href="#x"/></g><path d="M180 0v-1490h510c348 0 508 209 508 474 0 266-160 477-507 477H370V0H180zm190-706h312c236 0 327-133 327-310 0-176-91-307-329-307H370v617" id="Z"/><path d="M677 24c-213 0-288-135-325-197h-20V0H158v-1490h180v551h14c37-59 106-193 324-193 279 0 474 222 474 576 0 356-194 580-473 580zm-27-161c209 0 317-186 317-421 0-232-105-413-317-413-206 0-314 166-314 413 0 249 111 421 314 421" id="aa"/><path d="M338-670V0H158v-1490h180v566c73-149 190-208 336-208 226 0 379 139 379 422V0H872v-695c0-172-96-275-252-275-161 0-282 109-282 300" id="ab"/><g id="n"><use transform="matrix(0.008680555555555556,0,0,0.008680555555555556,0,0)" xlink:href="#Z"/><use transform="matrix(0.008680555555555556,0,0,0.008680555555555556,11.354166666666668,0)" xlink:href="#S"/><use transform="matrix(0.008680555555555556,0,0,0.008680555555555556,21.866319444444446,0)" xlink:href="#aa"/><use transform="matrix(0.008680555555555556,0,0,0.008680555555555556,32.751736111111114,0)" xlink:href="#B"/><use transform="matrix(0.008680555555555556,0,0,0.008680555555555556,37.05729166666667,0)" xlink:href="#z"/><use transform="matrix(0.008680555555555556,0,0,0.008680555555555556,41.36284722222223,0)" xlink:href="#K"/><use transform="matrix(0.008680555555555556,0,0,0.008680555555555556,50.746527777777786,0)" xlink:href="#ab"/></g><g id="o"><use transform="matrix(0.008680555555555556,0,0,0.008680555555555556,0,0)" xlink:href="#F"/><use transform="matrix(0.008680555555555556,0,0,0.008680555555555556,10.364583333333334,0)" xlink:href="#D"/><use transform="matrix(0.008680555555555556,0,0,0.008680555555555556,21.25,0)" xlink:href="#z"/><use transform="matrix(0.008680555555555556,0,0,0.008680555555555556,25.555555555555557,0)" xlink:href="#K"/><use transform="matrix(0.008680555555555556,0,0,0.008680555555555556,34.939236111111114,0)" xlink:href="#C"/><use transform="matrix(0.008680555555555556,0,0,0.008680555555555556,45.598958333333336,0)" xlink:href="#G"/><use transform="matrix(0.008680555555555556,0,0,0.008680555555555556,56.484375,0)" xlink:href="#F"/></g><path fill="#333" d="M135 0v-1490h581c339 0 533 210 533 503 0 295-197 500-540 500H440V0H135zm305-733h220c186 0 274-104 274-254s-88-251-275-251H440v505" id="ac"/><path fill="#333" d="M169-607c0-330 107-732 258-974h279c-145 311-231 674-231 974 0 262 67 512 231 886H427C258-1 169-307 169-607" id="ad"/><path fill="#333" d="M683-1118v229H474v562c0 71 29 104 102 104 23 0 73-7 95-13l43 225C647 9 580 16 520 16 296 16 174-96 174-301v-588H20v-229h154v-266h300v266h209" id="ae"/><path fill="#333" d="M67 279c166-379 230-627 230-886 0-300-86-663-230-974h278c151 241 258 644 258 974 0 302-90 608-258 886H67" id="af"/><g id="p"><use transform="matrix(0.008680555555555556,0,0,0.008680555555555556,0,0)" xlink:href="#ac"/><use transform="matrix(0.008680555555555556,0,0,0.008680555555555556,11.519097222222223,0)" xlink:href="#ad"/><use transform="matrix(0.008680555555555556,0,0,0.008680555555555556,18.220486111111114,0)" xlink:href="#ae"/><use transform="matrix(0.008680555555555556,0,0,0.008680555555555556,24.730902777777782,0)" xlink:href="#af"/></g><path fill="#333" d="M440 22C227 22 68-92 68-313c0-250 202-322 422-343 195-21 271-24 271-105 0-95-63-149-175-149-116 0-187 57-211 129l-275-46c57-194 237-305 487-305 240 0 474 108 474 379V0H777v-155h-10C713-51 605 22 440 22zm85-211c140 0 238-93 238-211v-121c-37 26-156 42-222 51-111 16-185 59-185 149 0 87 70 132 169 132" id="ag"/><g id="q"><use transform="matrix(0.008680555555555556,0,0,0.008680555555555556,0,0)" xlink:href="#ag"/><use transform="matrix(0.008680555555555556,0,0,0.008680555555555556,10.321180555555555,0)" xlink:href="#ad"/><use transform="matrix(0.008680555555555556,0,0,0.008680555555555556,17.022569444444443,0)" xlink:href="#ae"/><use transform="matrix(0.008680555555555556,0,0,0.008680555555555556,23.53298611111111,0)" xlink:href="#af"/></g><path fill="#333" d="M568-82v-393H183v-240h385v-393h254v393h386v240H822v393H568" id="ah"/><path fill="#333" d="M749-1490V0H444v-1221h-10L93-980v-279l329-231h327" id="ai"/><g id="r"><use transform="matrix(0.008680555555555556,0,0,0.008680555555555556,0,0)" xlink:href="#ac"/><use transform="matrix(0.008680555555555556,0,0,0.008680555555555556,11.519097222222223,0)" xlink:href="#ad"/><use transform="matrix(0.008680555555555556,0,0,0.008680555555555556,18.220486111111114,0)" xlink:href="#ae"/><use transform="matrix(0.008680555555555556,0,0,0.008680555555555556,24.435763888888893,0)" xlink:href="#ah"/><use transform="matrix(0.008680555555555556,0,0,0.008680555555555556,36.501736111111114,0)" xlink:href="#ai"/><use transform="matrix(0.008680555555555556,0,0,0.008680555555555556,44.487847222222236,0)" xlink:href="#af"/></g><path fill="#333" d="M135 0v-1490h581c339 0 533 192 533 485 0 204-94 351-264 424L1302 0H964L680-532H440V0H135zm305-779h220c186 0 274-77 274-226 0-150-88-233-275-233H440v459" id="aj"/><g id="s"><use transform="matrix(0.008680555555555556,0,0,0.008680555555555556,0,0)" xlink:href="#aj"/><use transform="matrix(0.008680555555555556,0,0,0.008680555555555556,11.675347222222223,0)" xlink:href="#ad"/><use transform="matrix(0.008680555555555556,0,0,0.008680555555555556,18.376736111111114,0)" xlink:href="#ae"/><use transform="matrix(0.008680555555555556,0,0,0.008680555555555556,24.592013888888893,0)" xlink:href="#ah"/><use transform="matrix(0.008680555555555556,0,0,0.008680555555555556,36.657986111111114,0)" xlink:href="#ai"/><use transform="matrix(0.008680555555555556,0,0,0.008680555555555556,44.644097222222236,0)" xlink:href="#af"/></g><path d="M458 0L52-1490h194c108 439 233 855 324 1313 92-459 221-873 331-1313h216c110 438 234 854 330 1307 92-455 216-869 323-1307h196L1558 0h-221l-256-944c-26-95-50-200-73-331-22 122-44 223-73 331L680 0H458" id="ak"/><g id="t"><use transform="matrix(0.008680555555555556,0,0,0.008680555555555556,0,0)" xlink:href="#ak"/><use transform="matrix(0.008680555555555556,0,0,0.008680555555555556,16.91840277777778,0)" xlink:href="#H"/><use transform="matrix(0.008680555555555556,0,0,0.008680555555555556,23.888888888888893,0)" xlink:href="#z"/><use transform="matrix(0.008680555555555556,0,0,0.008680555555555556,28.19444444444445,0)" xlink:href="#J"/><use transform="matrix(0.008680555555555556,0,0,0.008680555555555556,33.836805555555564,0)" xlink:href="#F"/></g><path d="M678-1118v154H420V0H240v-964H20v-154h220v-149c0-194 155-293 318-293 85 0 141 18 168 30l-50 154c-19-6-47-17-97-17-111 0-159 58-159 166v109h258" id="al"/><g id="u"><use transform="matrix(0.008680555555555556,0,0,0.008680555555555556,0,0)" xlink:href="#al"/><use transform="matrix(0.008680555555555556,0,0,0.008680555555555556,6.579861111111112,0)" xlink:href="#z"/><use transform="matrix(0.008680555555555556,0,0,0.008680555555555556,10.885416666666668,0)" xlink:href="#B"/><use transform="matrix(0.008680555555555556,0,0,0.008680555555555556,15.190972222222223,0)" xlink:href="#F"/><use transform="matrix(0.008680555555555556,0,0,0.008680555555555556,25.555555555555557,0)" xlink:href="#K"/></g><g id="v"><use transform="matrix(0.008680555555555556,0,0,0.008680555555555556,0,0)" xlink:href="#ak"/><use transform="matrix(0.008680555555555556,0,0,0.008680555555555556,16.614583333333332,0)" xlink:href="#C"/><use transform="matrix(0.008680555555555556,0,0,0.008680555555555556,27.274305555555557,0)" xlink:href="#H"/><use transform="matrix(0.008680555555555556,0,0,0.008680555555555556,34.24479166666667,0)" xlink:href="#B"/><use transform="matrix(0.008680555555555556,0,0,0.008680555555555556,38.55034722222223,0)" xlink:href="#G"/></g><g id="w"><use transform="matrix(0.008680555555555556,0,0,0.008680555555555556,0,0)" xlink:href="#H"/><use transform="matrix(0.008680555555555556,0,0,0.008680555555555556,6.397569444444445,0)" xlink:href="#F"/><use transform="matrix(0.008680555555555556,0,0,0.008680555555555556,16.76215277777778,0)" xlink:href="#K"/><use transform="matrix(0.008680555555555556,0,0,0.008680555555555556,26.145833333333336,0)" xlink:href="#F"/><use transform="matrix(0.008680555555555556,0,0,0.008680555555555556,36.51041666666667,0)" xlink:href="#J"/></g></defs></g></svg>